var notes = {
    "notes": [
      {
        "pitch": 36,
        "velocity": 100,
        "quantizedStartStep": 0,
        "quantizedEndStep": 1,
        "isDrum": true
      },
      {
        "pitch": 36,
        "velocity": 100,
        "quantizedStartStep": 7,
        "quantizedEndStep": 8,
        "isDrum": true
      },
      {
        "pitch": 36,
        "velocity": 100,
        "quantizedStartStep": 8,
        "quantizedEndStep": 9,
        "isDrum": true
      },
      {
        "pitch": 36,
        "velocity": 100,
        "quantizedStartStep": 16,
        "quantizedEndStep": 17,
        "isDrum": true
      },
      {
        "pitch": 36,
        "velocity": 100,
        "quantizedStartStep": 23,
        "quantizedEndStep": 24,
        "isDrum": true
      },
      {
        "pitch": 36,
        "velocity": 100,
        "quantizedStartStep": 24,
        "quantizedEndStep": 25,
        "isDrum": true
      },
      {
        "pitch": 38,
        "velocity": 80,
        "quantizedStartStep": 4,
        "quantizedEndStep": 5,
        "isDrum": true
      },
      {
        "pitch": 38,
        "velocity": 80,
        "quantizedStartStep": 12,
        "quantizedEndStep": 13,
        "isDrum": true
      },
      {
        "pitch": 38,
        "velocity": 80,
        "quantizedStartStep": 20,
        "quantizedEndStep": 21,
        "isDrum": true
      },
      {
        "pitch": 38,
        "velocity": 80,
        "quantizedStartStep": 28,
        "quantizedEndStep": 29,
        "isDrum": true
      },
      {
        "pitch": 42,
        "velocity": 80,
        "quantizedStartStep": 2,
        "quantizedEndStep": 3,
        "isDrum": true
      },
      {
        "pitch": 42,
        "velocity": 80,
        "quantizedStartStep": 3,
        "quantizedEndStep": 4,
        "isDrum": true
      },
      {
        "pitch": 42,
        "velocity": 80,
        "quantizedStartStep": 4,
        "quantizedEndStep": 5,
        "isDrum": true
      },
      {
        "pitch": 42,
        "velocity": 80,
        "quantizedStartStep": 6,
        "quantizedEndStep": 7,
        "isDrum": true
      },
      {
        "pitch": 42,
        "velocity": 80,
        "quantizedStartStep": 7,
        "quantizedEndStep": 8,
        "isDrum": true
      },
      {
        "pitch": 42,
        "velocity": 80,
        "quantizedStartStep": 8,
        "quantizedEndStep": 9,
        "isDrum": true
      },
      {
        "pitch": 42,
        "velocity": 80,
        "quantizedStartStep": 10,
        "quantizedEndStep": 11,
        "isDrum": true
      },
      {
        "pitch": 42,
        "velocity": 80,
        "quantizedStartStep": 11,
        "quantizedEndStep": 12,
        "isDrum": true
      },
      {
        "pitch": 42,
        "velocity": 80,
        "quantizedStartStep": 12,
        "quantizedEndStep": 13,
        "isDrum": true
      },
      {
        "pitch": 42,
        "velocity": 80,
        "quantizedStartStep": 14,
        "quantizedEndStep": 15,
        "isDrum": true
      },
      {
        "pitch": 42,
        "velocity": 80,
        "quantizedStartStep": 15,
        "quantizedEndStep": 16,
        "isDrum": true
      },
      {
        "pitch": 42,
        "velocity": 80,
        "quantizedStartStep": 16,
        "quantizedEndStep": 17,
        "isDrum": true
      },
      {
        "pitch": 42,
        "velocity": 80,
        "quantizedStartStep": 18,
        "quantizedEndStep": 19,
        "isDrum": true
      },
      {
        "pitch": 42,
        "velocity": 80,
        "quantizedStartStep": 19,
        "quantizedEndStep": 20,
        "isDrum": true
      },
      {
        "pitch": 42,
        "velocity": 80,
        "quantizedStartStep": 20,
        "quantizedEndStep": 21,
        "isDrum": true
      },
      {
        "pitch": 42,
        "velocity": 80,
        "quantizedStartStep": 22,
        "quantizedEndStep": 23,
        "isDrum": true
      },
      {
        "pitch": 42,
        "velocity": 80,
        "quantizedStartStep": 23,
        "quantizedEndStep": 24,
        "isDrum": true
      },
      {
        "pitch": 42,
        "velocity": 80,
        "quantizedStartStep": 24,
        "quantizedEndStep": 25,
        "isDrum": true
      },
      {
        "pitch": 42,
        "velocity": 80,
        "quantizedStartStep": 25,
        "quantizedEndStep": 26,
        "isDrum": true
      },
      {
        "pitch": 42,
        "velocity": 80,
        "quantizedStartStep": 26,
        "quantizedEndStep": 27,
        "isDrum": true
      },
      {
        "pitch": 42,
        "velocity": 80,
        "quantizedStartStep": 27,
        "quantizedEndStep": 28,
        "isDrum": true
      },
      {
        "pitch": 42,
        "velocity": 80,
        "quantizedStartStep": 28,
        "quantizedEndStep": 29,
        "isDrum": true
      },
      {
        "pitch": 42,
        "velocity": 80,
        "quantizedStartStep": 30,
        "quantizedEndStep": 31,
        "isDrum": true
      },
      {
        "pitch": 42,
        "velocity": 80,
        "quantizedStartStep": 31,
        "quantizedEndStep": 32,
        "isDrum": true
      }
    ],
    "quantizationInfo": {
      "stepsPerQuarter": 4
    },
    "totalQuantizedSteps": 32
  }